M48
; DRILL file {KiCad 7.0.8-7.0.8~ubuntu22.04.1} date 2024年07月29日 11時47分02秒
; FORMAT={-:-/ absolute / inch / decimal}
; #@! TF.CreationDate,2024-07-29T11:47:02+09:00
; #@! TF.GenerationSoftware,Kicad,Pcbnew,7.0.8-7.0.8~ubuntu22.04.1
; #@! TF.FileFunction,Plated,1,2,PTH
FMAT,2
INCH
; #@! TA.AperFunction,Plated,PTH,ViaDrill
T1C0.0157
; #@! TA.AperFunction,Plated,PTH,ComponentDrill
T2C0.0236
; #@! TA.AperFunction,Plated,PTH,ComponentDrill
T3C0.0295
; #@! TA.AperFunction,Plated,PTH,ComponentDrill
T4C0.0354
; #@! TA.AperFunction,Plated,PTH,ComponentDrill
T5C0.0394
; #@! TA.AperFunction,Plated,PTH,ViaDrill
T6C0.0394
%
G90
G05
T1
X5.2169Y-1.8403
X5.2829Y-2.1829
X5.2887Y-1.809
X5.2908Y-1.9959
X5.2908Y-1.9959
X5.3065Y-1.8561
X5.3194Y-1.7904
X5.3459Y-1.713
X5.3577Y-1.7695
X5.3652Y-2.2768
X5.3971Y-1.8041
X5.399Y-2.4663
X5.401Y-2.4309
X5.4128Y-2.0254
X5.4166Y-1.8246
X5.4717Y-1.7145
X5.4916Y-1.8207
X5.5231Y-2.4526
X5.5995Y-2.0786
X5.6014Y-2.133
X5.6018Y-1.99
X5.6018Y-2.364
X5.6397Y-1.7402
X5.6569Y-1.8128
X5.6727Y-2.2262
X5.786Y-1.8679
X5.8341Y-2.238
X5.8656Y-1.7243
X5.9169Y-1.8681
X5.9246Y-2.0608
X5.9288Y-1.734
X5.9359Y-1.9079
X5.9679Y-1.5451
X5.9707Y-2.1699
T3
X5.8639Y-2.1773
X5.9196Y-2.2329
X5.9753Y-2.2886
X6.0309Y-2.3443
T4
X6.0451Y-1.6632
X6.1451Y-1.6632
T5
X5.1396Y-1.5451
X5.1609Y-1.7569
X5.1609Y-1.8569
X5.1609Y-1.9569
X5.1609Y-2.0569
X5.1609Y-2.1569
X5.1609Y-2.2569
X5.2396Y-1.5451
X5.3286Y-1.6514
X5.3396Y-1.5451
X5.4286Y-1.6514
X5.5286Y-1.6514
X5.5333Y-1.5451
X5.6286Y-1.6514
X5.6333Y-1.5451
X5.7286Y-1.6514
X5.7333Y-1.5451
X5.7573Y-1.8089
X5.8286Y-1.6514
X5.9286Y-1.6514
X5.9542Y-1.8089
T6
X5.637Y-2.05
X6.0073Y-2.6238
X6.082Y-2.0289
T2
G00X5.9963Y-1.8679
M15
G01X6.0278Y-1.8679
M16
G05
G00X6.0112Y-2.2081
M15
G01X6.0427Y-2.2081
M16
G05
G00X6.1609Y-1.8679
M15
G01X6.1923Y-1.8679
M16
G05
G00X6.1609Y-2.2081
M15
G01X6.1923Y-2.2081
M16
G05
T0
M30
