G04 #@! TF.GenerationSoftware,KiCad,Pcbnew,7.0.8-7.0.8~ubuntu22.04.1*
G04 #@! TF.CreationDate,2024-07-29T11:47:05+09:00*
G04 #@! TF.ProjectId,FreqCounter3203,46726571-436f-4756-9e74-657233323033,rev?*
G04 #@! TF.SameCoordinates,Original*
G04 #@! TF.FileFunction,Legend,Top*
G04 #@! TF.FilePolarity,Positive*
%FSLAX46Y46*%
G04 Gerber Fmt 4.6, Leading zero omitted, Abs format (unit mm)*
G04 Created by KiCad (PCBNEW 7.0.8-7.0.8~ubuntu22.04.1) date 2024-07-29 11:47:05*
%MOMM*%
%LPD*%
G01*
G04 APERTURE LIST*
%ADD10C,0.150000*%
%ADD11C,0.120000*%
%ADD12C,0.650000*%
%ADD13O,1.800000X1.000000*%
%ADD14O,1.700000X1.000000*%
G04 APERTURE END LIST*
D10*
X150085600Y-68244800D02*
X156735600Y-68244800D01*
X153935600Y-57844800D02*
X153935600Y-46944800D01*
X153935600Y-46944800D02*
X132235600Y-46944800D01*
X150085600Y-66244800D02*
X150085600Y-68244800D01*
X129435600Y-40444800D02*
X129435600Y-68244800D01*
X156735600Y-40444800D02*
X129435600Y-40444800D01*
X132235600Y-57844800D02*
X153935600Y-57844800D01*
X129435600Y-68244800D02*
X136085600Y-68244800D01*
X136085600Y-68244800D02*
X136085600Y-66244800D01*
X132235600Y-46944800D02*
X132235600Y-57844800D01*
X156735600Y-68244800D02*
X156735600Y-40444800D01*
X136085600Y-66244800D02*
X150085600Y-66244800D01*
X134543933Y-58519619D02*
X134210600Y-58043428D01*
X133972505Y-58519619D02*
X133972505Y-57519619D01*
X133972505Y-57519619D02*
X134353457Y-57519619D01*
X134353457Y-57519619D02*
X134448695Y-57567238D01*
X134448695Y-57567238D02*
X134496314Y-57614857D01*
X134496314Y-57614857D02*
X134543933Y-57710095D01*
X134543933Y-57710095D02*
X134543933Y-57852952D01*
X134543933Y-57852952D02*
X134496314Y-57948190D01*
X134496314Y-57948190D02*
X134448695Y-57995809D01*
X134448695Y-57995809D02*
X134353457Y-58043428D01*
X134353457Y-58043428D02*
X133972505Y-58043428D01*
X134924886Y-57614857D02*
X134972505Y-57567238D01*
X134972505Y-57567238D02*
X135067743Y-57519619D01*
X135067743Y-57519619D02*
X135305838Y-57519619D01*
X135305838Y-57519619D02*
X135401076Y-57567238D01*
X135401076Y-57567238D02*
X135448695Y-57614857D01*
X135448695Y-57614857D02*
X135496314Y-57710095D01*
X135496314Y-57710095D02*
X135496314Y-57805333D01*
X135496314Y-57805333D02*
X135448695Y-57948190D01*
X135448695Y-57948190D02*
X134877267Y-58519619D01*
X134877267Y-58519619D02*
X135496314Y-58519619D01*
X128666552Y-70252000D02*
X128809409Y-70299619D01*
X128809409Y-70299619D02*
X129047504Y-70299619D01*
X129047504Y-70299619D02*
X129142742Y-70252000D01*
X129142742Y-70252000D02*
X129190361Y-70204380D01*
X129190361Y-70204380D02*
X129237980Y-70109142D01*
X129237980Y-70109142D02*
X129237980Y-70013904D01*
X129237980Y-70013904D02*
X129190361Y-69918666D01*
X129190361Y-69918666D02*
X129142742Y-69871047D01*
X129142742Y-69871047D02*
X129047504Y-69823428D01*
X129047504Y-69823428D02*
X128857028Y-69775809D01*
X128857028Y-69775809D02*
X128761790Y-69728190D01*
X128761790Y-69728190D02*
X128714171Y-69680571D01*
X128714171Y-69680571D02*
X128666552Y-69585333D01*
X128666552Y-69585333D02*
X128666552Y-69490095D01*
X128666552Y-69490095D02*
X128714171Y-69394857D01*
X128714171Y-69394857D02*
X128761790Y-69347238D01*
X128761790Y-69347238D02*
X128857028Y-69299619D01*
X128857028Y-69299619D02*
X129095123Y-69299619D01*
X129095123Y-69299619D02*
X129237980Y-69347238D01*
X129523695Y-69299619D02*
X130095123Y-69299619D01*
X129809409Y-70299619D02*
X129809409Y-69299619D01*
X130380838Y-70013904D02*
X130857028Y-70013904D01*
X130285600Y-70299619D02*
X130618933Y-69299619D01*
X130618933Y-69299619D02*
X130952266Y-70299619D01*
X131285600Y-70299619D02*
X131285600Y-69299619D01*
X131285600Y-69299619D02*
X131857028Y-70299619D01*
X131857028Y-70299619D02*
X131857028Y-69299619D01*
X132333219Y-70299619D02*
X132333219Y-69299619D01*
X132333219Y-69299619D02*
X132571314Y-69299619D01*
X132571314Y-69299619D02*
X132714171Y-69347238D01*
X132714171Y-69347238D02*
X132809409Y-69442476D01*
X132809409Y-69442476D02*
X132857028Y-69537714D01*
X132857028Y-69537714D02*
X132904647Y-69728190D01*
X132904647Y-69728190D02*
X132904647Y-69871047D01*
X132904647Y-69871047D02*
X132857028Y-70061523D01*
X132857028Y-70061523D02*
X132809409Y-70156761D01*
X132809409Y-70156761D02*
X132714171Y-70252000D01*
X132714171Y-70252000D02*
X132571314Y-70299619D01*
X132571314Y-70299619D02*
X132333219Y-70299619D01*
X154077505Y-39739619D02*
X154077505Y-38739619D01*
X154077505Y-38739619D02*
X154315600Y-38739619D01*
X154315600Y-38739619D02*
X154458457Y-38787238D01*
X154458457Y-38787238D02*
X154553695Y-38882476D01*
X154553695Y-38882476D02*
X154601314Y-38977714D01*
X154601314Y-38977714D02*
X154648933Y-39168190D01*
X154648933Y-39168190D02*
X154648933Y-39311047D01*
X154648933Y-39311047D02*
X154601314Y-39501523D01*
X154601314Y-39501523D02*
X154553695Y-39596761D01*
X154553695Y-39596761D02*
X154458457Y-39692000D01*
X154458457Y-39692000D02*
X154315600Y-39739619D01*
X154315600Y-39739619D02*
X154077505Y-39739619D01*
X155601314Y-39739619D02*
X155029886Y-39739619D01*
X155315600Y-39739619D02*
X155315600Y-38739619D01*
X155315600Y-38739619D02*
X155220362Y-38882476D01*
X155220362Y-38882476D02*
X155125124Y-38977714D01*
X155125124Y-38977714D02*
X155029886Y-39025333D01*
X135643933Y-53929619D02*
X135310600Y-53453428D01*
X135072505Y-53929619D02*
X135072505Y-52929619D01*
X135072505Y-52929619D02*
X135453457Y-52929619D01*
X135453457Y-52929619D02*
X135548695Y-52977238D01*
X135548695Y-52977238D02*
X135596314Y-53024857D01*
X135596314Y-53024857D02*
X135643933Y-53120095D01*
X135643933Y-53120095D02*
X135643933Y-53262952D01*
X135643933Y-53262952D02*
X135596314Y-53358190D01*
X135596314Y-53358190D02*
X135548695Y-53405809D01*
X135548695Y-53405809D02*
X135453457Y-53453428D01*
X135453457Y-53453428D02*
X135072505Y-53453428D01*
X136120124Y-53929619D02*
X136310600Y-53929619D01*
X136310600Y-53929619D02*
X136405838Y-53882000D01*
X136405838Y-53882000D02*
X136453457Y-53834380D01*
X136453457Y-53834380D02*
X136548695Y-53691523D01*
X136548695Y-53691523D02*
X136596314Y-53501047D01*
X136596314Y-53501047D02*
X136596314Y-53120095D01*
X136596314Y-53120095D02*
X136548695Y-53024857D01*
X136548695Y-53024857D02*
X136501076Y-52977238D01*
X136501076Y-52977238D02*
X136405838Y-52929619D01*
X136405838Y-52929619D02*
X136215362Y-52929619D01*
X136215362Y-52929619D02*
X136120124Y-52977238D01*
X136120124Y-52977238D02*
X136072505Y-53024857D01*
X136072505Y-53024857D02*
X136024886Y-53120095D01*
X136024886Y-53120095D02*
X136024886Y-53358190D01*
X136024886Y-53358190D02*
X136072505Y-53453428D01*
X136072505Y-53453428D02*
X136120124Y-53501047D01*
X136120124Y-53501047D02*
X136215362Y-53548666D01*
X136215362Y-53548666D02*
X136405838Y-53548666D01*
X136405838Y-53548666D02*
X136501076Y-53501047D01*
X136501076Y-53501047D02*
X136548695Y-53453428D01*
X136548695Y-53453428D02*
X136596314Y-53358190D01*
X149843933Y-66774380D02*
X149796314Y-66822000D01*
X149796314Y-66822000D02*
X149653457Y-66869619D01*
X149653457Y-66869619D02*
X149558219Y-66869619D01*
X149558219Y-66869619D02*
X149415362Y-66822000D01*
X149415362Y-66822000D02*
X149320124Y-66726761D01*
X149320124Y-66726761D02*
X149272505Y-66631523D01*
X149272505Y-66631523D02*
X149224886Y-66441047D01*
X149224886Y-66441047D02*
X149224886Y-66298190D01*
X149224886Y-66298190D02*
X149272505Y-66107714D01*
X149272505Y-66107714D02*
X149320124Y-66012476D01*
X149320124Y-66012476D02*
X149415362Y-65917238D01*
X149415362Y-65917238D02*
X149558219Y-65869619D01*
X149558219Y-65869619D02*
X149653457Y-65869619D01*
X149653457Y-65869619D02*
X149796314Y-65917238D01*
X149796314Y-65917238D02*
X149843933Y-65964857D01*
X150701076Y-65869619D02*
X150510600Y-65869619D01*
X150510600Y-65869619D02*
X150415362Y-65917238D01*
X150415362Y-65917238D02*
X150367743Y-65964857D01*
X150367743Y-65964857D02*
X150272505Y-66107714D01*
X150272505Y-66107714D02*
X150224886Y-66298190D01*
X150224886Y-66298190D02*
X150224886Y-66679142D01*
X150224886Y-66679142D02*
X150272505Y-66774380D01*
X150272505Y-66774380D02*
X150320124Y-66822000D01*
X150320124Y-66822000D02*
X150415362Y-66869619D01*
X150415362Y-66869619D02*
X150605838Y-66869619D01*
X150605838Y-66869619D02*
X150701076Y-66822000D01*
X150701076Y-66822000D02*
X150748695Y-66774380D01*
X150748695Y-66774380D02*
X150796314Y-66679142D01*
X150796314Y-66679142D02*
X150796314Y-66441047D01*
X150796314Y-66441047D02*
X150748695Y-66345809D01*
X150748695Y-66345809D02*
X150701076Y-66298190D01*
X150701076Y-66298190D02*
X150605838Y-66250571D01*
X150605838Y-66250571D02*
X150415362Y-66250571D01*
X150415362Y-66250571D02*
X150320124Y-66298190D01*
X150320124Y-66298190D02*
X150272505Y-66345809D01*
X150272505Y-66345809D02*
X150224886Y-66441047D01*
X133868933Y-49354380D02*
X133821314Y-49402000D01*
X133821314Y-49402000D02*
X133678457Y-49449619D01*
X133678457Y-49449619D02*
X133583219Y-49449619D01*
X133583219Y-49449619D02*
X133440362Y-49402000D01*
X133440362Y-49402000D02*
X133345124Y-49306761D01*
X133345124Y-49306761D02*
X133297505Y-49211523D01*
X133297505Y-49211523D02*
X133249886Y-49021047D01*
X133249886Y-49021047D02*
X133249886Y-48878190D01*
X133249886Y-48878190D02*
X133297505Y-48687714D01*
X133297505Y-48687714D02*
X133345124Y-48592476D01*
X133345124Y-48592476D02*
X133440362Y-48497238D01*
X133440362Y-48497238D02*
X133583219Y-48449619D01*
X133583219Y-48449619D02*
X133678457Y-48449619D01*
X133678457Y-48449619D02*
X133821314Y-48497238D01*
X133821314Y-48497238D02*
X133868933Y-48544857D01*
X134249886Y-48544857D02*
X134297505Y-48497238D01*
X134297505Y-48497238D02*
X134392743Y-48449619D01*
X134392743Y-48449619D02*
X134630838Y-48449619D01*
X134630838Y-48449619D02*
X134726076Y-48497238D01*
X134726076Y-48497238D02*
X134773695Y-48544857D01*
X134773695Y-48544857D02*
X134821314Y-48640095D01*
X134821314Y-48640095D02*
X134821314Y-48735333D01*
X134821314Y-48735333D02*
X134773695Y-48878190D01*
X134773695Y-48878190D02*
X134202267Y-49449619D01*
X134202267Y-49449619D02*
X134821314Y-49449619D01*
X148993933Y-38074380D02*
X148946314Y-38122000D01*
X148946314Y-38122000D02*
X148803457Y-38169619D01*
X148803457Y-38169619D02*
X148708219Y-38169619D01*
X148708219Y-38169619D02*
X148565362Y-38122000D01*
X148565362Y-38122000D02*
X148470124Y-38026761D01*
X148470124Y-38026761D02*
X148422505Y-37931523D01*
X148422505Y-37931523D02*
X148374886Y-37741047D01*
X148374886Y-37741047D02*
X148374886Y-37598190D01*
X148374886Y-37598190D02*
X148422505Y-37407714D01*
X148422505Y-37407714D02*
X148470124Y-37312476D01*
X148470124Y-37312476D02*
X148565362Y-37217238D01*
X148565362Y-37217238D02*
X148708219Y-37169619D01*
X148708219Y-37169619D02*
X148803457Y-37169619D01*
X148803457Y-37169619D02*
X148946314Y-37217238D01*
X148946314Y-37217238D02*
X148993933Y-37264857D01*
X149851076Y-37502952D02*
X149851076Y-38169619D01*
X149612981Y-37122000D02*
X149374886Y-37836285D01*
X149374886Y-37836285D02*
X149993933Y-37836285D01*
X137670419Y-39578133D02*
X138384704Y-39578133D01*
X138384704Y-39578133D02*
X138527561Y-39625752D01*
X138527561Y-39625752D02*
X138622800Y-39720990D01*
X138622800Y-39720990D02*
X138670419Y-39863847D01*
X138670419Y-39863847D02*
X138670419Y-39959085D01*
X138670419Y-38578133D02*
X138670419Y-39149561D01*
X138670419Y-38863847D02*
X137670419Y-38863847D01*
X137670419Y-38863847D02*
X137813276Y-38959085D01*
X137813276Y-38959085D02*
X137908514Y-39054323D01*
X137908514Y-39054323D02*
X137956133Y-39149561D01*
X136493933Y-49329619D02*
X136160600Y-48853428D01*
X135922505Y-49329619D02*
X135922505Y-48329619D01*
X135922505Y-48329619D02*
X136303457Y-48329619D01*
X136303457Y-48329619D02*
X136398695Y-48377238D01*
X136398695Y-48377238D02*
X136446314Y-48424857D01*
X136446314Y-48424857D02*
X136493933Y-48520095D01*
X136493933Y-48520095D02*
X136493933Y-48662952D01*
X136493933Y-48662952D02*
X136446314Y-48758190D01*
X136446314Y-48758190D02*
X136398695Y-48805809D01*
X136398695Y-48805809D02*
X136303457Y-48853428D01*
X136303457Y-48853428D02*
X135922505Y-48853428D01*
X137065362Y-48758190D02*
X136970124Y-48710571D01*
X136970124Y-48710571D02*
X136922505Y-48662952D01*
X136922505Y-48662952D02*
X136874886Y-48567714D01*
X136874886Y-48567714D02*
X136874886Y-48520095D01*
X136874886Y-48520095D02*
X136922505Y-48424857D01*
X136922505Y-48424857D02*
X136970124Y-48377238D01*
X136970124Y-48377238D02*
X137065362Y-48329619D01*
X137065362Y-48329619D02*
X137255838Y-48329619D01*
X137255838Y-48329619D02*
X137351076Y-48377238D01*
X137351076Y-48377238D02*
X137398695Y-48424857D01*
X137398695Y-48424857D02*
X137446314Y-48520095D01*
X137446314Y-48520095D02*
X137446314Y-48567714D01*
X137446314Y-48567714D02*
X137398695Y-48662952D01*
X137398695Y-48662952D02*
X137351076Y-48710571D01*
X137351076Y-48710571D02*
X137255838Y-48758190D01*
X137255838Y-48758190D02*
X137065362Y-48758190D01*
X137065362Y-48758190D02*
X136970124Y-48805809D01*
X136970124Y-48805809D02*
X136922505Y-48853428D01*
X136922505Y-48853428D02*
X136874886Y-48948666D01*
X136874886Y-48948666D02*
X136874886Y-49139142D01*
X136874886Y-49139142D02*
X136922505Y-49234380D01*
X136922505Y-49234380D02*
X136970124Y-49282000D01*
X136970124Y-49282000D02*
X137065362Y-49329619D01*
X137065362Y-49329619D02*
X137255838Y-49329619D01*
X137255838Y-49329619D02*
X137351076Y-49282000D01*
X137351076Y-49282000D02*
X137398695Y-49234380D01*
X137398695Y-49234380D02*
X137446314Y-49139142D01*
X137446314Y-49139142D02*
X137446314Y-48948666D01*
X137446314Y-48948666D02*
X137398695Y-48853428D01*
X137398695Y-48853428D02*
X137351076Y-48805809D01*
X137351076Y-48805809D02*
X137255838Y-48758190D01*
X144085600Y-75837714D02*
X144085600Y-76599619D01*
X144276076Y-76409142D02*
X144085600Y-76599619D01*
X144085600Y-76599619D02*
X143895124Y-76409142D01*
X133768933Y-50854380D02*
X133721314Y-50902000D01*
X133721314Y-50902000D02*
X133578457Y-50949619D01*
X133578457Y-50949619D02*
X133483219Y-50949619D01*
X133483219Y-50949619D02*
X133340362Y-50902000D01*
X133340362Y-50902000D02*
X133245124Y-50806761D01*
X133245124Y-50806761D02*
X133197505Y-50711523D01*
X133197505Y-50711523D02*
X133149886Y-50521047D01*
X133149886Y-50521047D02*
X133149886Y-50378190D01*
X133149886Y-50378190D02*
X133197505Y-50187714D01*
X133197505Y-50187714D02*
X133245124Y-50092476D01*
X133245124Y-50092476D02*
X133340362Y-49997238D01*
X133340362Y-49997238D02*
X133483219Y-49949619D01*
X133483219Y-49949619D02*
X133578457Y-49949619D01*
X133578457Y-49949619D02*
X133721314Y-49997238D01*
X133721314Y-49997238D02*
X133768933Y-50044857D01*
X134102267Y-49949619D02*
X134721314Y-49949619D01*
X134721314Y-49949619D02*
X134387981Y-50330571D01*
X134387981Y-50330571D02*
X134530838Y-50330571D01*
X134530838Y-50330571D02*
X134626076Y-50378190D01*
X134626076Y-50378190D02*
X134673695Y-50425809D01*
X134673695Y-50425809D02*
X134721314Y-50521047D01*
X134721314Y-50521047D02*
X134721314Y-50759142D01*
X134721314Y-50759142D02*
X134673695Y-50854380D01*
X134673695Y-50854380D02*
X134626076Y-50902000D01*
X134626076Y-50902000D02*
X134530838Y-50949619D01*
X134530838Y-50949619D02*
X134245124Y-50949619D01*
X134245124Y-50949619D02*
X134149886Y-50902000D01*
X134149886Y-50902000D02*
X134102267Y-50854380D01*
X137315180Y-53386466D02*
X137362800Y-53434085D01*
X137362800Y-53434085D02*
X137410419Y-53576942D01*
X137410419Y-53576942D02*
X137410419Y-53672180D01*
X137410419Y-53672180D02*
X137362800Y-53815037D01*
X137362800Y-53815037D02*
X137267561Y-53910275D01*
X137267561Y-53910275D02*
X137172323Y-53957894D01*
X137172323Y-53957894D02*
X136981847Y-54005513D01*
X136981847Y-54005513D02*
X136838990Y-54005513D01*
X136838990Y-54005513D02*
X136648514Y-53957894D01*
X136648514Y-53957894D02*
X136553276Y-53910275D01*
X136553276Y-53910275D02*
X136458038Y-53815037D01*
X136458038Y-53815037D02*
X136410419Y-53672180D01*
X136410419Y-53672180D02*
X136410419Y-53576942D01*
X136410419Y-53576942D02*
X136458038Y-53434085D01*
X136458038Y-53434085D02*
X136505657Y-53386466D01*
X137410419Y-52434085D02*
X137410419Y-53005513D01*
X137410419Y-52719799D02*
X136410419Y-52719799D01*
X136410419Y-52719799D02*
X136553276Y-52815037D01*
X136553276Y-52815037D02*
X136648514Y-52910275D01*
X136648514Y-52910275D02*
X136696133Y-53005513D01*
X149886195Y-61499619D02*
X149886195Y-62309142D01*
X149886195Y-62309142D02*
X149933814Y-62404380D01*
X149933814Y-62404380D02*
X149981433Y-62452000D01*
X149981433Y-62452000D02*
X150076671Y-62499619D01*
X150076671Y-62499619D02*
X150267147Y-62499619D01*
X150267147Y-62499619D02*
X150362385Y-62452000D01*
X150362385Y-62452000D02*
X150410004Y-62404380D01*
X150410004Y-62404380D02*
X150457623Y-62309142D01*
X150457623Y-62309142D02*
X150457623Y-61499619D01*
X151362385Y-61832952D02*
X151362385Y-62499619D01*
X151124290Y-61452000D02*
X150886195Y-62166285D01*
X150886195Y-62166285D02*
X151505242Y-62166285D01*
X134643933Y-60819619D02*
X134310600Y-60343428D01*
X134072505Y-60819619D02*
X134072505Y-59819619D01*
X134072505Y-59819619D02*
X134453457Y-59819619D01*
X134453457Y-59819619D02*
X134548695Y-59867238D01*
X134548695Y-59867238D02*
X134596314Y-59914857D01*
X134596314Y-59914857D02*
X134643933Y-60010095D01*
X134643933Y-60010095D02*
X134643933Y-60152952D01*
X134643933Y-60152952D02*
X134596314Y-60248190D01*
X134596314Y-60248190D02*
X134548695Y-60295809D01*
X134548695Y-60295809D02*
X134453457Y-60343428D01*
X134453457Y-60343428D02*
X134072505Y-60343428D01*
X134977267Y-59819619D02*
X135596314Y-59819619D01*
X135596314Y-59819619D02*
X135262981Y-60200571D01*
X135262981Y-60200571D02*
X135405838Y-60200571D01*
X135405838Y-60200571D02*
X135501076Y-60248190D01*
X135501076Y-60248190D02*
X135548695Y-60295809D01*
X135548695Y-60295809D02*
X135596314Y-60391047D01*
X135596314Y-60391047D02*
X135596314Y-60629142D01*
X135596314Y-60629142D02*
X135548695Y-60724380D01*
X135548695Y-60724380D02*
X135501076Y-60772000D01*
X135501076Y-60772000D02*
X135405838Y-60819619D01*
X135405838Y-60819619D02*
X135120124Y-60819619D01*
X135120124Y-60819619D02*
X135024886Y-60772000D01*
X135024886Y-60772000D02*
X134977267Y-60724380D01*
X137185600Y-76499619D02*
X137185600Y-75737714D01*
X136995124Y-75928190D02*
X137185600Y-75737714D01*
X137185600Y-75737714D02*
X137376076Y-75928190D01*
X149943933Y-60074380D02*
X149896314Y-60122000D01*
X149896314Y-60122000D02*
X149753457Y-60169619D01*
X149753457Y-60169619D02*
X149658219Y-60169619D01*
X149658219Y-60169619D02*
X149515362Y-60122000D01*
X149515362Y-60122000D02*
X149420124Y-60026761D01*
X149420124Y-60026761D02*
X149372505Y-59931523D01*
X149372505Y-59931523D02*
X149324886Y-59741047D01*
X149324886Y-59741047D02*
X149324886Y-59598190D01*
X149324886Y-59598190D02*
X149372505Y-59407714D01*
X149372505Y-59407714D02*
X149420124Y-59312476D01*
X149420124Y-59312476D02*
X149515362Y-59217238D01*
X149515362Y-59217238D02*
X149658219Y-59169619D01*
X149658219Y-59169619D02*
X149753457Y-59169619D01*
X149753457Y-59169619D02*
X149896314Y-59217238D01*
X149896314Y-59217238D02*
X149943933Y-59264857D01*
X150848695Y-59169619D02*
X150372505Y-59169619D01*
X150372505Y-59169619D02*
X150324886Y-59645809D01*
X150324886Y-59645809D02*
X150372505Y-59598190D01*
X150372505Y-59598190D02*
X150467743Y-59550571D01*
X150467743Y-59550571D02*
X150705838Y-59550571D01*
X150705838Y-59550571D02*
X150801076Y-59598190D01*
X150801076Y-59598190D02*
X150848695Y-59645809D01*
X150848695Y-59645809D02*
X150896314Y-59741047D01*
X150896314Y-59741047D02*
X150896314Y-59979142D01*
X150896314Y-59979142D02*
X150848695Y-60074380D01*
X150848695Y-60074380D02*
X150801076Y-60122000D01*
X150801076Y-60122000D02*
X150705838Y-60169619D01*
X150705838Y-60169619D02*
X150467743Y-60169619D01*
X150467743Y-60169619D02*
X150372505Y-60122000D01*
X150372505Y-60122000D02*
X150324886Y-60074380D01*
X138362800Y-40578132D02*
X138410419Y-40435275D01*
X138410419Y-40435275D02*
X138410419Y-40197180D01*
X138410419Y-40197180D02*
X138362800Y-40101942D01*
X138362800Y-40101942D02*
X138315180Y-40054323D01*
X138315180Y-40054323D02*
X138219942Y-40006704D01*
X138219942Y-40006704D02*
X138124704Y-40006704D01*
X138124704Y-40006704D02*
X138029466Y-40054323D01*
X138029466Y-40054323D02*
X137981847Y-40101942D01*
X137981847Y-40101942D02*
X137934228Y-40197180D01*
X137934228Y-40197180D02*
X137886609Y-40387656D01*
X137886609Y-40387656D02*
X137838990Y-40482894D01*
X137838990Y-40482894D02*
X137791371Y-40530513D01*
X137791371Y-40530513D02*
X137696133Y-40578132D01*
X137696133Y-40578132D02*
X137600895Y-40578132D01*
X137600895Y-40578132D02*
X137505657Y-40530513D01*
X137505657Y-40530513D02*
X137458038Y-40482894D01*
X137458038Y-40482894D02*
X137410419Y-40387656D01*
X137410419Y-40387656D02*
X137410419Y-40149561D01*
X137410419Y-40149561D02*
X137458038Y-40006704D01*
X137410419Y-39673370D02*
X138410419Y-39435275D01*
X138410419Y-39435275D02*
X137696133Y-39244799D01*
X137696133Y-39244799D02*
X138410419Y-39054323D01*
X138410419Y-39054323D02*
X137410419Y-38816228D01*
X137410419Y-38530513D02*
X137410419Y-37863847D01*
X137410419Y-37863847D02*
X138410419Y-38292418D01*
X144318933Y-61329619D02*
X143985600Y-60853428D01*
X143747505Y-61329619D02*
X143747505Y-60329619D01*
X143747505Y-60329619D02*
X144128457Y-60329619D01*
X144128457Y-60329619D02*
X144223695Y-60377238D01*
X144223695Y-60377238D02*
X144271314Y-60424857D01*
X144271314Y-60424857D02*
X144318933Y-60520095D01*
X144318933Y-60520095D02*
X144318933Y-60662952D01*
X144318933Y-60662952D02*
X144271314Y-60758190D01*
X144271314Y-60758190D02*
X144223695Y-60805809D01*
X144223695Y-60805809D02*
X144128457Y-60853428D01*
X144128457Y-60853428D02*
X143747505Y-60853428D01*
X145223695Y-60329619D02*
X144747505Y-60329619D01*
X144747505Y-60329619D02*
X144699886Y-60805809D01*
X144699886Y-60805809D02*
X144747505Y-60758190D01*
X144747505Y-60758190D02*
X144842743Y-60710571D01*
X144842743Y-60710571D02*
X145080838Y-60710571D01*
X145080838Y-60710571D02*
X145176076Y-60758190D01*
X145176076Y-60758190D02*
X145223695Y-60805809D01*
X145223695Y-60805809D02*
X145271314Y-60901047D01*
X145271314Y-60901047D02*
X145271314Y-61139142D01*
X145271314Y-61139142D02*
X145223695Y-61234380D01*
X145223695Y-61234380D02*
X145176076Y-61282000D01*
X145176076Y-61282000D02*
X145080838Y-61329619D01*
X145080838Y-61329619D02*
X144842743Y-61329619D01*
X144842743Y-61329619D02*
X144747505Y-61282000D01*
X144747505Y-61282000D02*
X144699886Y-61234380D01*
X152290362Y-69299619D02*
X152480838Y-69299619D01*
X152480838Y-69299619D02*
X152576076Y-69347238D01*
X152576076Y-69347238D02*
X152671314Y-69442476D01*
X152671314Y-69442476D02*
X152718933Y-69632952D01*
X152718933Y-69632952D02*
X152718933Y-69966285D01*
X152718933Y-69966285D02*
X152671314Y-70156761D01*
X152671314Y-70156761D02*
X152576076Y-70252000D01*
X152576076Y-70252000D02*
X152480838Y-70299619D01*
X152480838Y-70299619D02*
X152290362Y-70299619D01*
X152290362Y-70299619D02*
X152195124Y-70252000D01*
X152195124Y-70252000D02*
X152099886Y-70156761D01*
X152099886Y-70156761D02*
X152052267Y-69966285D01*
X152052267Y-69966285D02*
X152052267Y-69632952D01*
X152052267Y-69632952D02*
X152099886Y-69442476D01*
X152099886Y-69442476D02*
X152195124Y-69347238D01*
X152195124Y-69347238D02*
X152290362Y-69299619D01*
X153147505Y-70299619D02*
X153147505Y-69299619D01*
X153718933Y-70299619D02*
X153290362Y-69728190D01*
X153718933Y-69299619D02*
X153147505Y-69871047D01*
X141493933Y-47929619D02*
X141160600Y-47453428D01*
X140922505Y-47929619D02*
X140922505Y-46929619D01*
X140922505Y-46929619D02*
X141303457Y-46929619D01*
X141303457Y-46929619D02*
X141398695Y-46977238D01*
X141398695Y-46977238D02*
X141446314Y-47024857D01*
X141446314Y-47024857D02*
X141493933Y-47120095D01*
X141493933Y-47120095D02*
X141493933Y-47262952D01*
X141493933Y-47262952D02*
X141446314Y-47358190D01*
X141446314Y-47358190D02*
X141398695Y-47405809D01*
X141398695Y-47405809D02*
X141303457Y-47453428D01*
X141303457Y-47453428D02*
X140922505Y-47453428D01*
X142351076Y-46929619D02*
X142160600Y-46929619D01*
X142160600Y-46929619D02*
X142065362Y-46977238D01*
X142065362Y-46977238D02*
X142017743Y-47024857D01*
X142017743Y-47024857D02*
X141922505Y-47167714D01*
X141922505Y-47167714D02*
X141874886Y-47358190D01*
X141874886Y-47358190D02*
X141874886Y-47739142D01*
X141874886Y-47739142D02*
X141922505Y-47834380D01*
X141922505Y-47834380D02*
X141970124Y-47882000D01*
X141970124Y-47882000D02*
X142065362Y-47929619D01*
X142065362Y-47929619D02*
X142255838Y-47929619D01*
X142255838Y-47929619D02*
X142351076Y-47882000D01*
X142351076Y-47882000D02*
X142398695Y-47834380D01*
X142398695Y-47834380D02*
X142446314Y-47739142D01*
X142446314Y-47739142D02*
X142446314Y-47501047D01*
X142446314Y-47501047D02*
X142398695Y-47405809D01*
X142398695Y-47405809D02*
X142351076Y-47358190D01*
X142351076Y-47358190D02*
X142255838Y-47310571D01*
X142255838Y-47310571D02*
X142065362Y-47310571D01*
X142065362Y-47310571D02*
X141970124Y-47358190D01*
X141970124Y-47358190D02*
X141922505Y-47405809D01*
X141922505Y-47405809D02*
X141874886Y-47501047D01*
X154593933Y-44369619D02*
X154260600Y-43893428D01*
X154022505Y-44369619D02*
X154022505Y-43369619D01*
X154022505Y-43369619D02*
X154403457Y-43369619D01*
X154403457Y-43369619D02*
X154498695Y-43417238D01*
X154498695Y-43417238D02*
X154546314Y-43464857D01*
X154546314Y-43464857D02*
X154593933Y-43560095D01*
X154593933Y-43560095D02*
X154593933Y-43702952D01*
X154593933Y-43702952D02*
X154546314Y-43798190D01*
X154546314Y-43798190D02*
X154498695Y-43845809D01*
X154498695Y-43845809D02*
X154403457Y-43893428D01*
X154403457Y-43893428D02*
X154022505Y-43893428D01*
X155546314Y-44369619D02*
X154974886Y-44369619D01*
X155260600Y-44369619D02*
X155260600Y-43369619D01*
X155260600Y-43369619D02*
X155165362Y-43512476D01*
X155165362Y-43512476D02*
X155070124Y-43607714D01*
X155070124Y-43607714D02*
X154974886Y-43655333D01*
X142573695Y-46349619D02*
X142573695Y-47159142D01*
X142573695Y-47159142D02*
X142621314Y-47254380D01*
X142621314Y-47254380D02*
X142668933Y-47302000D01*
X142668933Y-47302000D02*
X142764171Y-47349619D01*
X142764171Y-47349619D02*
X142954647Y-47349619D01*
X142954647Y-47349619D02*
X143049885Y-47302000D01*
X143049885Y-47302000D02*
X143097504Y-47254380D01*
X143097504Y-47254380D02*
X143145123Y-47159142D01*
X143145123Y-47159142D02*
X143145123Y-46349619D01*
X143526076Y-46349619D02*
X144145123Y-46349619D01*
X144145123Y-46349619D02*
X143811790Y-46730571D01*
X143811790Y-46730571D02*
X143954647Y-46730571D01*
X143954647Y-46730571D02*
X144049885Y-46778190D01*
X144049885Y-46778190D02*
X144097504Y-46825809D01*
X144097504Y-46825809D02*
X144145123Y-46921047D01*
X144145123Y-46921047D02*
X144145123Y-47159142D01*
X144145123Y-47159142D02*
X144097504Y-47254380D01*
X144097504Y-47254380D02*
X144049885Y-47302000D01*
X144049885Y-47302000D02*
X143954647Y-47349619D01*
X143954647Y-47349619D02*
X143668933Y-47349619D01*
X143668933Y-47349619D02*
X143573695Y-47302000D01*
X143573695Y-47302000D02*
X143526076Y-47254380D01*
X135643933Y-55429619D02*
X135310600Y-54953428D01*
X135072505Y-55429619D02*
X135072505Y-54429619D01*
X135072505Y-54429619D02*
X135453457Y-54429619D01*
X135453457Y-54429619D02*
X135548695Y-54477238D01*
X135548695Y-54477238D02*
X135596314Y-54524857D01*
X135596314Y-54524857D02*
X135643933Y-54620095D01*
X135643933Y-54620095D02*
X135643933Y-54762952D01*
X135643933Y-54762952D02*
X135596314Y-54858190D01*
X135596314Y-54858190D02*
X135548695Y-54905809D01*
X135548695Y-54905809D02*
X135453457Y-54953428D01*
X135453457Y-54953428D02*
X135072505Y-54953428D01*
X135977267Y-54429619D02*
X136643933Y-54429619D01*
X136643933Y-54429619D02*
X136215362Y-55429619D01*
X160240419Y-52526704D02*
X161049942Y-52526704D01*
X161049942Y-52526704D02*
X161145180Y-52479085D01*
X161145180Y-52479085D02*
X161192800Y-52431466D01*
X161192800Y-52431466D02*
X161240419Y-52336228D01*
X161240419Y-52336228D02*
X161240419Y-52145752D01*
X161240419Y-52145752D02*
X161192800Y-52050514D01*
X161192800Y-52050514D02*
X161145180Y-52002895D01*
X161145180Y-52002895D02*
X161049942Y-51955276D01*
X161049942Y-51955276D02*
X160240419Y-51955276D01*
X160240419Y-51002895D02*
X160240419Y-51479085D01*
X160240419Y-51479085D02*
X160716609Y-51526704D01*
X160716609Y-51526704D02*
X160668990Y-51479085D01*
X160668990Y-51479085D02*
X160621371Y-51383847D01*
X160621371Y-51383847D02*
X160621371Y-51145752D01*
X160621371Y-51145752D02*
X160668990Y-51050514D01*
X160668990Y-51050514D02*
X160716609Y-51002895D01*
X160716609Y-51002895D02*
X160811847Y-50955276D01*
X160811847Y-50955276D02*
X161049942Y-50955276D01*
X161049942Y-50955276D02*
X161145180Y-51002895D01*
X161145180Y-51002895D02*
X161192800Y-51050514D01*
X161192800Y-51050514D02*
X161240419Y-51145752D01*
X161240419Y-51145752D02*
X161240419Y-51383847D01*
X161240419Y-51383847D02*
X161192800Y-51479085D01*
X161192800Y-51479085D02*
X161145180Y-51526704D01*
X132030419Y-42278133D02*
X132744704Y-42278133D01*
X132744704Y-42278133D02*
X132887561Y-42325752D01*
X132887561Y-42325752D02*
X132982800Y-42420990D01*
X132982800Y-42420990D02*
X133030419Y-42563847D01*
X133030419Y-42563847D02*
X133030419Y-42659085D01*
X132030419Y-41897180D02*
X132030419Y-41278133D01*
X132030419Y-41278133D02*
X132411371Y-41611466D01*
X132411371Y-41611466D02*
X132411371Y-41468609D01*
X132411371Y-41468609D02*
X132458990Y-41373371D01*
X132458990Y-41373371D02*
X132506609Y-41325752D01*
X132506609Y-41325752D02*
X132601847Y-41278133D01*
X132601847Y-41278133D02*
X132839942Y-41278133D01*
X132839942Y-41278133D02*
X132935180Y-41325752D01*
X132935180Y-41325752D02*
X132982800Y-41373371D01*
X132982800Y-41373371D02*
X133030419Y-41468609D01*
X133030419Y-41468609D02*
X133030419Y-41754323D01*
X133030419Y-41754323D02*
X132982800Y-41849561D01*
X132982800Y-41849561D02*
X132935180Y-41897180D01*
D11*
X134473342Y-58972300D02*
X134947858Y-58972300D01*
X134473342Y-60017300D02*
X134947858Y-60017300D01*
X153255600Y-41008800D02*
X153255600Y-41164800D01*
X153255600Y-43324800D02*
X153255600Y-43480800D01*
X156487934Y-41166192D02*
G75*
G03*
X153255601Y-41009285I-1672334J-1078608D01*
G01*
X155856729Y-41164964D02*
G75*
G03*
X153774640Y-41164801I-1041129J-1079836D01*
G01*
X153774640Y-43324799D02*
G75*
G03*
X155856729Y-43324636I1040960J1079999D01*
G01*
X153255601Y-43480315D02*
G75*
G03*
X156487934Y-43323408I1559999J1235515D01*
G01*
X136047858Y-52567300D02*
X135573342Y-52567300D01*
X136047858Y-51522300D02*
X135573342Y-51522300D01*
X149870020Y-67334800D02*
X150151180Y-67334800D01*
X149870020Y-68354800D02*
X150151180Y-68354800D01*
X136570020Y-48434800D02*
X136851180Y-48434800D01*
X136570020Y-49454800D02*
X136851180Y-49454800D01*
X149020020Y-38634800D02*
X149301180Y-38634800D01*
X149020020Y-39654800D02*
X149301180Y-39654800D01*
X139215600Y-40574800D02*
X139215600Y-39244800D01*
X140545600Y-40574800D02*
X139215600Y-40574800D01*
X141815600Y-40574800D02*
X146955600Y-40574800D01*
X141815600Y-40574800D02*
X141815600Y-37914800D01*
X146955600Y-40574800D02*
X146955600Y-37914800D01*
X141815600Y-37914800D02*
X146955600Y-37914800D01*
X136897858Y-47967300D02*
X136423342Y-47967300D01*
X136897858Y-46922300D02*
X136423342Y-46922300D01*
X147365600Y-68939800D02*
X147365600Y-75399800D01*
X147335600Y-68939800D02*
X147365600Y-68939800D01*
X145435600Y-68939800D02*
X142835600Y-68939800D01*
X140905600Y-68939800D02*
X140935600Y-68939800D01*
X140905600Y-68939800D02*
X140905600Y-75399800D01*
X147365600Y-75399800D02*
X147335600Y-75399800D01*
X145435600Y-75399800D02*
X142835600Y-75399800D01*
X140905600Y-75399800D02*
X140935600Y-75399800D01*
X136570020Y-49934800D02*
X136851180Y-49934800D01*
X136570020Y-50954800D02*
X136851180Y-50954800D01*
X137875600Y-53360380D02*
X137875600Y-53079220D01*
X138895600Y-53360380D02*
X138895600Y-53079220D01*
X150648100Y-62884800D02*
X148848100Y-62884800D01*
X150648100Y-62884800D02*
X151448100Y-62884800D01*
X150648100Y-66004800D02*
X149848100Y-66004800D01*
X150648100Y-66004800D02*
X151448100Y-66004800D01*
X134573342Y-61272300D02*
X135047858Y-61272300D01*
X134573342Y-62317300D02*
X135047858Y-62317300D01*
X134005600Y-75399800D02*
X134005600Y-68939800D01*
X134035600Y-75399800D02*
X134005600Y-75399800D01*
X135935600Y-75399800D02*
X138535600Y-75399800D01*
X140465600Y-75399800D02*
X140435600Y-75399800D01*
X140465600Y-75399800D02*
X140465600Y-68939800D01*
X134005600Y-68939800D02*
X134035600Y-68939800D01*
X135935600Y-68939800D02*
X138535600Y-68939800D01*
X140465600Y-68939800D02*
X140435600Y-68939800D01*
X149970020Y-60634800D02*
X150251180Y-60634800D01*
X149970020Y-61654800D02*
X150251180Y-61654800D01*
X136955600Y-37914800D02*
X136955600Y-39244800D01*
X135625600Y-37914800D02*
X136955600Y-37914800D01*
X134355600Y-37914800D02*
X129215600Y-37914800D01*
X134355600Y-37914800D02*
X134355600Y-40574800D01*
X129215600Y-37914800D02*
X129215600Y-40574800D01*
X134355600Y-40574800D02*
X129215600Y-40574800D01*
X144722858Y-59967300D02*
X144248342Y-59967300D01*
X144722858Y-58922300D02*
X144248342Y-58922300D01*
X156115600Y-77224800D02*
X149655600Y-77224800D01*
X156115600Y-77194800D02*
X156115600Y-77224800D01*
X156115600Y-75294800D02*
X156115600Y-72694800D01*
X156115600Y-70764800D02*
X156115600Y-70794800D01*
X156115600Y-70764800D02*
X149655600Y-70764800D01*
X149655600Y-77224800D02*
X149655600Y-77194800D01*
X149655600Y-75294800D02*
X149655600Y-72694800D01*
X149655600Y-70764800D02*
X149655600Y-70794800D01*
X141897858Y-46567300D02*
X141423342Y-46567300D01*
X141897858Y-45522300D02*
X141423342Y-45522300D01*
X154523342Y-44822300D02*
X154997858Y-44822300D01*
X154523342Y-45867300D02*
X154997858Y-45867300D01*
X143335600Y-47709800D02*
X141135600Y-47709800D01*
X143335600Y-47709800D02*
X145535600Y-47709800D01*
X143335600Y-54479800D02*
X141135600Y-54479800D01*
X143335600Y-54479800D02*
X145535600Y-54479800D01*
X139475600Y-48169800D02*
X139145600Y-48409800D01*
X139145600Y-47929800D01*
X139475600Y-48169800D01*
G36*
X139475600Y-48169800D02*
G01*
X139145600Y-48409800D01*
X139145600Y-47929800D01*
X139475600Y-48169800D01*
G37*
X136047858Y-54067300D02*
X135573342Y-54067300D01*
X136047858Y-53022300D02*
X135573342Y-53022300D01*
D10*
X153085600Y-56264800D02*
X159485600Y-56264800D01*
X159485600Y-56264800D02*
X159485600Y-47264800D01*
X152085600Y-47264800D02*
X152085600Y-56264800D01*
X159485600Y-47264800D02*
X153085600Y-47264800D01*
D11*
X136615600Y-43274800D02*
X151915600Y-43274800D01*
X136615600Y-43274800D02*
X136615600Y-40614800D01*
X151915600Y-43274800D02*
X151915600Y-40614800D01*
X134015600Y-41944800D02*
X134015600Y-40614800D01*
X134015600Y-40614800D02*
X135345600Y-40614800D01*
X136615600Y-40614800D02*
X151915600Y-40614800D01*
D12*
X153395600Y-54844800D03*
X153395600Y-48684800D03*
D13*
X153085600Y-56084800D03*
X156885600Y-56084800D03*
X152705600Y-47444800D03*
D14*
X156885600Y-47444800D03*
M02*
