G04 #@! TF.GenerationSoftware,KiCad,Pcbnew,7.0.8-7.0.8~ubuntu22.04.1*
G04 #@! TF.CreationDate,2024-07-29T11:47:05+09:00*
G04 #@! TF.ProjectId,FreqCounter3203,46726571-436f-4756-9e74-657233323033,rev?*
G04 #@! TF.SameCoordinates,Original*
G04 #@! TF.FileFunction,Soldermask,Top*
G04 #@! TF.FilePolarity,Negative*
%FSLAX46Y46*%
G04 Gerber Fmt 4.6, Leading zero omitted, Abs format (unit mm)*
G04 Created by KiCad (PCBNEW 7.0.8-7.0.8~ubuntu22.04.1) date 2024-07-29 11:47:05*
%MOMM*%
%LPD*%
G01*
G04 APERTURE LIST*
G04 Aperture macros list*
%AMRoundRect*
0 Rectangle with rounded corners*
0 $1 Rounding radius*
0 $2 $3 $4 $5 $6 $7 $8 $9 X,Y pos of 4 corners*
0 Add a 4 corners polygon primitive as box body*
4,1,4,$2,$3,$4,$5,$6,$7,$8,$9,$2,$3,0*
0 Add four circle primitives for the rounded corners*
1,1,$1+$1,$2,$3*
1,1,$1+$1,$4,$5*
1,1,$1+$1,$6,$7*
1,1,$1+$1,$8,$9*
0 Add four rect primitives between the rounded corners*
20,1,$1+$1,$2,$3,$4,$5,0*
20,1,$1+$1,$4,$5,$6,$7,0*
20,1,$1+$1,$6,$7,$8,$9,0*
20,1,$1+$1,$8,$9,$2,$3,0*%
%AMHorizOval*
0 Thick line with rounded ends*
0 $1 width*
0 $2 $3 position (X,Y) of the first rounded end (center of the circle)*
0 $4 $5 position (X,Y) of the second rounded end (center of the circle)*
0 Add line between two ends*
20,1,$1,$2,$3,$4,$5,0*
0 Add two circle primitives to create the rounded ends*
1,1,$1,$2,$3*
1,1,$1,$4,$5*%
G04 Aperture macros list end*
%ADD10RoundRect,0.400000X-0.200000X-0.275000X0.200000X-0.275000X0.200000X0.275000X-0.200000X0.275000X0*%
%ADD11C,3.600000*%
%ADD12RoundRect,0.200000X-0.900000X-0.900000X0.900000X-0.900000X0.900000X0.900000X-0.900000X0.900000X0*%
%ADD13C,2.200000*%
%ADD14RoundRect,0.400000X0.200000X0.275000X-0.200000X0.275000X-0.200000X-0.275000X0.200000X-0.275000X0*%
%ADD15RoundRect,0.425000X-0.225000X-0.250000X0.225000X-0.250000X0.225000X0.250000X-0.225000X0.250000X0*%
%ADD16RoundRect,0.200000X0.850000X-0.850000X0.850000X0.850000X-0.850000X0.850000X-0.850000X-0.850000X0*%
%ADD17O,2.100000X2.100000*%
%ADD18RoundRect,0.200000X-0.650000X0.775000X-0.650000X-0.775000X0.650000X-0.775000X0.650000X0.775000X0*%
%ADD19RoundRect,0.425000X0.250000X-0.225000X0.250000X0.225000X-0.250000X0.225000X-0.250000X-0.225000X0*%
%ADD20RoundRect,0.350000X-0.512500X-0.150000X0.512500X-0.150000X0.512500X0.150000X-0.512500X0.150000X0*%
%ADD21RoundRect,0.200000X0.650000X-0.775000X0.650000X0.775000X-0.650000X0.775000X-0.650000X-0.775000X0*%
%ADD22RoundRect,0.200000X-0.850000X0.850000X-0.850000X-0.850000X0.850000X-0.850000X0.850000X0.850000X0*%
%ADD23RoundRect,0.200000X0.775000X0.650000X-0.775000X0.650000X-0.775000X-0.650000X0.775000X-0.650000X0*%
%ADD24RoundRect,0.300000X-0.637500X-0.100000X0.637500X-0.100000X0.637500X0.100000X-0.637500X0.100000X0*%
%ADD25C,1.050000*%
%ADD26RoundRect,0.200000X0.570000X-0.150000X0.570000X0.150000X-0.570000X0.150000X-0.570000X-0.150000X0*%
%ADD27O,2.200000X1.400000*%
%ADD28O,2.100000X1.400000*%
%ADD29RoundRect,0.200000X0.850000X0.850000X-0.850000X0.850000X-0.850000X-0.850000X0.850000X-0.850000X0*%
%ADD30RoundRect,0.200000X1.000000X1.000000X-1.000000X1.000000X-1.000000X-1.000000X1.000000X-1.000000X0*%
%ADD31C,2.400000*%
%ADD32RoundRect,0.450000X-0.689429X-0.194454X-0.194454X-0.689429X0.689429X0.194454X0.194454X0.689429X0*%
%ADD33HorizOval,1.600000X-0.194454X-0.194454X0.194454X0.194454X0*%
G04 APERTURE END LIST*
D10*
X133885600Y-59494800D03*
X135535600Y-59494800D03*
D11*
X130785600Y-73844800D03*
D12*
X153545600Y-42244800D03*
D13*
X156085600Y-42244800D03*
D14*
X136635600Y-52044800D03*
X134985600Y-52044800D03*
D15*
X149235600Y-67844800D03*
X150785600Y-67844800D03*
X135935600Y-48944800D03*
X137485600Y-48944800D03*
X148385600Y-39144800D03*
X149935600Y-39144800D03*
D16*
X140545600Y-39244800D03*
D17*
X143085600Y-39244800D03*
X145625600Y-39244800D03*
D14*
X137485600Y-47444800D03*
X135835600Y-47444800D03*
D18*
X146385600Y-68194800D03*
X146385600Y-76144800D03*
X141885600Y-68194800D03*
X141885600Y-76144800D03*
D15*
X135935600Y-50444800D03*
X137485600Y-50444800D03*
D19*
X138385600Y-53994800D03*
X138385600Y-52444800D03*
D20*
X149510600Y-63494800D03*
X149510600Y-65394800D03*
X151785600Y-64444800D03*
D10*
X133985600Y-61794800D03*
X135635600Y-61794800D03*
D21*
X134985600Y-76144800D03*
X134985600Y-68194800D03*
X139485600Y-76144800D03*
X139485600Y-68194800D03*
D15*
X149335600Y-61144800D03*
X150885600Y-61144800D03*
D22*
X135625600Y-39244800D03*
D17*
X133085600Y-39244800D03*
X130545600Y-39244800D03*
D14*
X145310600Y-59444800D03*
X143660600Y-59444800D03*
D23*
X156860600Y-76244800D03*
X148910600Y-76244800D03*
X156860600Y-71744800D03*
X148910600Y-71744800D03*
D14*
X142485600Y-46044800D03*
X140835600Y-46044800D03*
D10*
X153935600Y-45344800D03*
X155585600Y-45344800D03*
D24*
X140473100Y-48169800D03*
X140473100Y-48819800D03*
X140473100Y-49469800D03*
X140473100Y-50119800D03*
X140473100Y-50769800D03*
X140473100Y-51419800D03*
X140473100Y-52069800D03*
X140473100Y-52719800D03*
X140473100Y-53369800D03*
X140473100Y-54019800D03*
X146198100Y-54019800D03*
X146198100Y-53369800D03*
X146198100Y-52719800D03*
X146198100Y-52069800D03*
X146198100Y-51419800D03*
X146198100Y-50769800D03*
X146198100Y-50119800D03*
X146198100Y-49469800D03*
X146198100Y-48819800D03*
X146198100Y-48169800D03*
D14*
X136635600Y-53544800D03*
X134985600Y-53544800D03*
D25*
X153395600Y-54844800D03*
X153395600Y-48684800D03*
D26*
X152135600Y-55114800D03*
X152135600Y-54314800D03*
X152135600Y-53014800D03*
X152135600Y-52014800D03*
X152135600Y-51514800D03*
X152135600Y-50514800D03*
X152135600Y-49214800D03*
X152135600Y-48414800D03*
X152135600Y-48714800D03*
X152135600Y-49514800D03*
X152135600Y-50014800D03*
X152135600Y-51014800D03*
X152135600Y-52514800D03*
X152135600Y-53514800D03*
X152135600Y-54014800D03*
X152135600Y-54814800D03*
D27*
X153085600Y-56084800D03*
X156885600Y-56084800D03*
X152705600Y-47444800D03*
D28*
X156885600Y-47444800D03*
D16*
X135345600Y-41944800D03*
D17*
X137885600Y-41944800D03*
X140425600Y-41944800D03*
X142965600Y-41944800D03*
X145505600Y-41944800D03*
X148045600Y-41944800D03*
X150585600Y-41944800D03*
D29*
X131085600Y-44624800D03*
D17*
X131085600Y-47164800D03*
X131085600Y-49704800D03*
X131085600Y-52244800D03*
X131085600Y-54784800D03*
X131085600Y-57324800D03*
D30*
X151235600Y-45944800D03*
D31*
X146235600Y-45944800D03*
D32*
X148942959Y-55302159D03*
D33*
X150357173Y-56716373D03*
X151771386Y-58130586D03*
X153185600Y-59544800D03*
M02*
